<?xml version="1.0" encoding="utf-8"?>
<!-- Generator: Adobe Illustrator 19.0.0, SVG Export Plug-In . SVG Version: 6.00 Build 0)  -->
<svg version="1.0" id="Capa_1" xmlns="http://www.w3.org/2000/svg" xmlns:xlink="http://www.w3.org/1999/xlink" x="0px" y="0px"
	 viewBox="0 0 45.5 89.2" style="enable-background:new 0 0 45.5 89.2;" xml:space="preserve">
<style type="text/css">
	.st0{fill:#FFFFFF;}
</style>
<g id="XMLID_406_">
	<g id="XMLID_416_">
		<path id="XMLID_6827_" class="st0" d="M3,59.8c-0.9-0.5-1.7-1.2-2.2-2.1C0.3,56.8,0,55.7,0,54.6c0-1.1,0.3-2.2,0.8-3.1
			c0.5-0.9,1.3-1.6,2.2-2.1s2-0.8,3.2-0.8c1,0,2,0.2,2.8,0.6c0.8,0.4,1.5,0.9,2.1,1.6l-2,1.9c-0.7-0.9-1.6-1.3-2.7-1.3
			c-0.6,0-1.2,0.1-1.6,0.4c-0.5,0.3-0.9,0.7-1.1,1.1c-0.3,0.5-0.4,1.1-0.4,1.7c0,0.6,0.1,1.2,0.4,1.7c0.3,0.5,0.6,0.9,1.1,1.1
			c0.5,0.3,1,0.4,1.6,0.4c1.1,0,1.9-0.4,2.7-1.3l2,1.9c-0.6,0.7-1.2,1.2-2.1,1.6c-0.8,0.4-1.8,0.6-2.8,0.6C5.1,60.5,4,60.3,3,59.8z"
			/>
		<path id="XMLID_6808_" class="st0" d="M23.1,48.9v11.4h-3.2v-4.4h-4.4v4.4h-3.2V48.9h3.2v4.3h4.4v-4.3H23.1z"/>
		<path id="XMLID_6776_" class="st0" d="M26.3,59.1c-0.9-0.9-1.4-2.2-1.4-3.9v-6.3h3.2v6.2c0,1.8,0.7,2.7,2.2,2.7
			c1.4,0,2.1-0.9,2.1-2.7v-6.2h3.2v6.3c0,1.7-0.5,3-1.4,3.9c-0.9,0.9-2.3,1.4-3.9,1.4C28.6,60.5,27.3,60.1,26.3,59.1z"/>
		<path id="XMLID_6769_" class="st0" d="M5.6,71.6H3.8v3H0.6V63.2h5.2c1,0,1.9,0.2,2.7,0.5c0.8,0.3,1.3,0.8,1.8,1.5
			c0.4,0.6,0.6,1.4,0.6,2.2c0,0.8-0.2,1.5-0.6,2.2c-0.4,0.6-0.9,1.1-1.6,1.4l2.5,3.6H7.6L5.6,71.6z M7.1,66.2
			c-0.3-0.3-0.8-0.4-1.5-0.4H3.8v3.3h1.8c0.7,0,1.2-0.1,1.5-0.4c0.3-0.3,0.5-0.7,0.5-1.2C7.6,66.9,7.4,66.5,7.1,66.2z"/>
		<path id="XMLID_6766_" class="st0" d="M17.3,71.6h-1.8v3h-3.2V63.2h5.2c1,0,1.9,0.2,2.7,0.5c0.8,0.3,1.3,0.8,1.8,1.5
			c0.4,0.6,0.6,1.4,0.6,2.2c0,0.8-0.2,1.5-0.6,2.2c-0.4,0.6-0.9,1.1-1.6,1.4l2.5,3.6h-3.4L17.3,71.6z M18.8,66.2
			c-0.3-0.3-0.8-0.4-1.5-0.4h-1.8v3.3h1.8c0.7,0,1.2-0.1,1.5-0.4c0.3-0.3,0.5-0.7,0.5-1.2C19.3,66.9,19.1,66.5,18.8,66.2z"/>
		<path id="XMLID_441_" class="st0" d="M31.6,72.4h-4.8l-0.9,2.2h-3.3l5-11.4h3.2l5,11.4h-3.3L31.6,72.4z M30.7,70l-1.5-3.6L27.7,70
			H30.7z"/>
		<path id="XMLID_438_" class="st0" d="M37.7,74.5c-0.9-0.2-1.6-0.5-2.1-0.9l1.1-2.4c0.5,0.3,1.1,0.6,1.8,0.8c0.7,0.2,1.3,0.3,2,0.3
			c1.2,0,1.9-0.3,1.9-0.9c0-0.3-0.2-0.6-0.5-0.7c-0.4-0.2-0.9-0.3-1.7-0.5c-0.9-0.2-1.6-0.4-2.1-0.6c-0.6-0.2-1.1-0.5-1.5-1
			c-0.4-0.5-0.6-1.1-0.6-1.9c0-0.7,0.2-1.3,0.6-1.9c0.4-0.6,0.9-1,1.7-1.3c0.8-0.3,1.7-0.5,2.8-0.5c0.7,0,1.5,0.1,2.2,0.3
			c0.7,0.2,1.4,0.4,1.9,0.7l-1,2.4c-1.1-0.6-2.1-0.9-3.2-0.9c-0.6,0-1.1,0.1-1.4,0.3C39.2,66,39,66.2,39,66.5c0,0.3,0.2,0.5,0.5,0.7
			c0.3,0.2,0.9,0.3,1.7,0.5c0.9,0.2,1.6,0.4,2.2,0.6c0.6,0.2,1.1,0.5,1.5,1c0.4,0.5,0.6,1.1,0.6,1.9c0,0.7-0.2,1.3-0.6,1.9
			c-0.4,0.6-0.9,1-1.7,1.3c-0.8,0.3-1.7,0.5-2.8,0.5C39.5,74.8,38.6,74.7,37.7,74.5z"/>
		<path id="XMLID_430_" class="st0" d="M3,88.4c-0.9-0.5-1.7-1.2-2.2-2.1C0.3,85.4,0,84.4,0,83.2c0-1.1,0.3-2.2,0.8-3.1
			c0.5-0.9,1.3-1.6,2.2-2.1c0.9-0.5,2-0.8,3.2-0.8c1,0,2,0.2,2.8,0.6c0.8,0.4,1.5,0.9,2.1,1.6l-2,1.9C8.4,80.4,7.5,80,6.4,80
			c-0.6,0-1.2,0.1-1.6,0.4c-0.5,0.3-0.9,0.7-1.1,1.1c-0.3,0.5-0.4,1.1-0.4,1.7c0,0.6,0.1,1.2,0.4,1.7c0.3,0.5,0.6,0.9,1.1,1.1
			c0.5,0.3,1,0.4,1.6,0.4c1.1,0,1.9-0.4,2.7-1.3l2,1.9c-0.6,0.7-1.2,1.2-2.1,1.6c-0.8,0.4-1.8,0.6-2.8,0.6C5.1,89.2,4,88.9,3,88.4z"
			/>
		<path id="XMLID_419_" class="st0" d="M14.5,88.4c-1-0.5-1.7-1.2-2.3-2.1c-0.5-0.9-0.8-1.9-0.8-3c0-1.1,0.3-2.1,0.8-3
			c0.5-0.9,1.3-1.6,2.3-2.1c1-0.5,2-0.8,3.2-0.8c1.2,0,2.3,0.3,3.2,0.8c1,0.5,1.7,1.2,2.3,2.1c0.5,0.9,0.8,1.9,0.8,3
			c0,1.1-0.3,2.1-0.8,3c-0.5,0.9-1.3,1.6-2.3,2.1c-1,0.5-2,0.8-3.2,0.8C16.5,89.2,15.5,88.9,14.5,88.4z M19.3,86.1
			c0.5-0.3,0.8-0.7,1.1-1.1c0.3-0.5,0.4-1.1,0.4-1.7c0-0.6-0.1-1.2-0.4-1.7c-0.3-0.5-0.6-0.9-1.1-1.1c-0.5-0.3-1-0.4-1.6-0.4
			s-1.1,0.1-1.6,0.4c-0.5,0.3-0.8,0.7-1.1,1.1c-0.3,0.5-0.4,1.1-0.4,1.7c0,0.6,0.1,1.2,0.4,1.7c0.3,0.5,0.6,0.9,1.1,1.1
			c0.5,0.3,1,0.4,1.6,0.4S18.8,86.4,19.3,86.1z"/>
	</g>
	<path id="Trazado_91_2_" class="st0" d="M36.4,36.4c-8.3,8.3-21.9,8.3-30.2,0s-8.3-21.9,0-30.2c8.3-8.3,21.7-8.3,30-0.2l-6.8,6.8
		c-4.7-4.5-12.1-4.3-16.5,0.3s-4.3,12.1,0.3,16.5c4.6,4.4,11.9,4.3,16.4-0.2L36.4,36.4z"/>
</g>
</svg>
