<?xml version="1.0" encoding="utf-8"?>
<!-- Generator: Adobe Illustrator 19.0.0, SVG Export Plug-In . SVG Version: 6.00 Build 0)  -->
<svg version="1.0" id="Capa_1" xmlns="http://www.w3.org/2000/svg" xmlns:xlink="http://www.w3.org/1999/xlink" x="0px" y="0px"
	 viewBox="0 0 100.8 81.7" style="enable-background:new 0 0 100.8 81.7;" xml:space="preserve">
<style type="text/css">
	.st0{fill:#FFFFFF;}
	.st1{fill:url(#XMLID_37_);}
	.st2{fill:url(#XMLID_38_);}
	.st3{opacity:0.3;fill:url(#XMLID_39_);}
	.st4{opacity:0.3;fill:url(#XMLID_40_);}
</style>
<g id="XMLID_105_">
	<path id="XMLID_7046_" class="st0" d="M99.6,39.6c-0.3-6.3-1.9-12.5-2.9-15c-3.2-8-12.6-23.5-37.6-23.5
		c-28.3,0-47.3,22.5-54.4,32.7c-3.4,5.8-3.6,10.6-3.6,15.8c0,5.9,1.6,13.2,3.9,16.1c2.1,2.6,5.2,5,9.8,5c7.3,0,5.9-2.4,14.6-2.4
		c17.8,0,19.9,12.2,39.7,12.2c17.1,0,26.1-15.1,28.1-22.5C99.6,49.2,99.8,44.2,99.6,39.6z"/>
	<linearGradient id="XMLID_37_" gradientUnits="userSpaceOnUse" x1="18.1132" y1="80.6033" x2="88.3736" y2="10.3428">
		<stop  offset="0" style="stop-color:#E01C2F"/>
		<stop  offset="1" style="stop-color:#5D318A"/>
	</linearGradient>
	<path id="XMLID_7023_" class="st1" d="M69.2,81.7c-10.5,0-16.2-3.3-21.6-6.5c-5-2.9-9.8-5.7-18.1-5.7c-4.3,0-6,0.6-7.7,1.2
		c-1.6,0.6-3.3,1.2-7,1.2c-4.1,0-7.8-1.9-10.6-5.5C1.5,63,0,55.3,0,49.7c0-5.5,0.3-10.5,3.8-16.4l0-0.1C10.8,23.2,30.1,0,59.1,0
		c11.2,0,20.5,3,27.7,9c6.1,5,9.3,11,10.9,15.2c1,2.5,2.6,8.8,3,15.3l0,0c0.3,4.9-0.1,10-2.4,18.8C95.9,67.4,85.8,81.7,69.2,81.7z
		 M29.4,67.3c8.9,0,14.2,3,19.2,6c5.2,3.1,10.6,6.2,20.5,6.2c17.3,0,25.5-16.1,27-21.7c2.3-8.5,2.6-13.4,2.3-18.1l0,0
		c-0.3-6.3-1.9-12.3-2.8-14.6C92.3,16.5,83.1,2.2,59.1,2.2c-27.9,0-46.7,22.5-53.4,32.2c-3.2,5.4-3.4,9.9-3.4,15.3
		c0,5.9,1.7,12.8,3.7,15.4c2.4,3.1,5.4,4.6,8.9,4.6c3.3,0,4.6-0.5,6.2-1.1C22.7,68,24.7,67.3,29.4,67.3z"/>
	<linearGradient id="XMLID_38_" gradientUnits="userSpaceOnUse" x1="27.4081" y1="63.3127" x2="78.7736" y2="11.9472">
		<stop  offset="0" style="stop-color:#E01C2F"/>
		<stop  offset="1" style="stop-color:#5D318A"/>
	</linearGradient>
	<path id="XMLID_6867_" class="st2" d="M89.7,25.9c-1-2.4-2.4-4.6-4-6.7c-2-2.5-4.4-4.8-7.1-6.7c-2.7-1.9-5.7-3.3-8.9-4.1
		c-2.8-0.8-5.8-1.2-9-1.2c-9.8,0-18.5,3.7-21.8,5.1c-3.7,1.6-7.2,3.5-10.5,5.7c-3.1,2.1-6,4.4-8.7,7c-2.5,2.3-4.7,4.9-6.4,7.3
		c-1.7,2.4-3,4.7-3.8,6.7c-0.4,1.1-0.6,2.1-0.7,3c-0.1,1.1,0.1,2.1,0.6,3c0.8,1.5,2.5,2.9,4.3,3.5c0.7,0.2,1.4,0.4,2.2,0.4
		c1.4,0,2.6-0.4,4.1-0.9c0.7-0.2,1.5-0.5,2.5-0.8c0,0,3.8-1.1,7.6-1.3c0.5,0,1,0,1.5,0c2.7,0,4.8,0.4,6,0.7
		c5.2,1.1,9.4,3.7,13.5,6.2c5.1,3.1,10.3,6.4,17,6.4c0.1,0,0.3,0,0.4,0c2.5-0.1,5-0.6,7.3-1.5c2-0.8,3.8-1.8,5.5-3
		c3.1-2.2,4.8-4.4,5-4.7c1.2-1.6,5.2-7.3,5-15.2C91.6,31.7,90.9,28.7,89.7,25.9z"/>
	<linearGradient id="XMLID_39_" gradientUnits="userSpaceOnUse" x1="25.6509" y1="59.7799" x2="76.1286" y2="9.3023">
		<stop  offset="0" style="stop-color:#E01C2F"/>
		<stop  offset="1" style="stop-color:#5D318A"/>
	</linearGradient>
	<path id="XMLID_6833_" class="st3" d="M91.4,34.4c0,0,0.1,0.1,0.1,0.1c-0.1-2.9-0.7-5.8-1.9-8.5c-1-2.4-2.4-4.6-4-6.7
		c-2-2.5-4.4-4.8-7.1-6.7c-2.7-1.9-5.7-3.3-8.9-4.1c-2.8-0.8-5.8-1.2-9-1.2c-9.8,0-18.5,3.7-21.8,5.1c-3.7,1.6-7.2,3.5-10.5,5.7
		c-3.1,2.1-6,4.4-8.7,7c-2.5,2.3-4.7,4.9-6.4,7.3c-1.7,2.4-3,4.7-3.8,6.7c-0.4,1.1-0.6,2.1-0.7,3c0,0.4,0,0.7,0,1
		c0.1-0.8,0.3-1.7,0.7-2.6c0.7-1.8,2-4,3.8-6.2c1.8-2.2,4-4.6,6.4-6.7c2.7-2.4,5.6-4.6,8.7-6.5c3.3-2.1,6.8-3.9,10.5-5.3
		c3.3-1.3,12-4.7,21.8-4.7c3.2,0,6.2,0.4,9,1.1c3.2,0.8,6.2,2.1,8.9,3.8c2.7,1.7,5,3.8,7.1,6.2c1.6,1.9,3,4,4,6.2
		C90.6,30.2,91.2,32.3,91.4,34.4z"/>
	<linearGradient id="XMLID_40_" gradientUnits="userSpaceOnUse" x1="59.469" y1="44.6277" x2="76.8547" y2="27.2419">
		<stop  offset="0" style="stop-color:#E01C2F"/>
		<stop  offset="1" style="stop-color:#5D318A"/>
	</linearGradient>
	<ellipse id="XMLID_6752_" class="st4" cx="68.2" cy="35.9" rx="12.4" ry="12.1"/>
	<g id="XMLID_107_">
		<path id="XMLID_116_" class="st0" d="M68.3,46c-5.5,0-10-4.5-10-10c0-5.5,4.5-10,10-10h0c5.5,0,10,4.5,10,10
			C78.3,41.5,73.8,46,68.3,46z M68.3,28.6c-4.1,0-7.4,3.3-7.4,7.4c0,4.1,3.3,7.4,7.4,7.4c4.1,0,7.4-3.3,7.4-7.4
			C75.7,31.9,72.4,28.6,68.3,28.6L68.3,28.6z"/>
	</g>
</g>
</svg>
