<?xml version="1.0" encoding="utf-8"?>
<!-- Generator: Adobe Illustrator 19.0.0, SVG Export Plug-In . SVG Version: 6.00 Build 0)  -->
<svg version="1.0" id="Capa_1" xmlns="http://www.w3.org/2000/svg" xmlns:xlink="http://www.w3.org/1999/xlink" x="0px" y="0px"
	 viewBox="0 0 46 88.2" style="enable-background:new 0 0 46 88.2;" xml:space="preserve">
<style type="text/css">
	.st0{fill:#FFFFFF;}
</style>
<g id="XMLID_24_">
	<g id="XMLID_229_">
		<circle id="XMLID_6727_" class="st0" cx="26.5" cy="19.1" r="1.5"/>
		<path id="XMLID_6724_" class="st0" d="M21.4,42.7c11.8,0,21.4-9.6,21.4-21.4S33.2,0,21.4,0S0,9.6,0,21.4S9.6,42.7,21.4,42.7z
			 M7.3,18.5c2.2-3.1,7.9-9.9,16.5-9.9c7.6,0,10.4,4.7,11.4,7.1c0.3,0.8,0.8,2.6,0.9,4.5c0.1,1.4,0,2.9-0.7,5.6
			c-0.6,2.2-3.3,6.8-8.5,6.8c-6,0-6.6-3.7-12-3.7c-2.6,0-2.2,0.7-4.4,0.7c-1.4,0-2.3-0.7-3-1.5c-0.7-0.9-1.2-3.1-1.2-4.9
			C6.2,21.7,6.2,20.2,7.3,18.5z"/>
		<path id="XMLID_230_" class="st0" d="M10,22.9c0.2,0.1,0.4,0.1,0.7,0.1c0.4,0,0.8-0.1,1.2-0.3c0.2-0.1,0.5-0.2,0.8-0.2
			c0,0,1.2-0.3,2.3-0.4c0.2,0,0.3,0,0.5,0c0.8,0,1.4,0.1,1.8,0.2c1.6,0.3,2.9,1.1,4.1,1.9c1.5,0.9,3.1,1.9,5.1,1.9c0,0,0.1,0,0.1,0
			c0.8,0,1.5-0.2,2.2-0.5c0.6-0.2,1.2-0.5,1.7-0.9c0.9-0.7,1.5-1.3,1.5-1.4c0.4-0.5,1.6-2.2,1.5-4.6c0-0.9-0.2-1.8-0.6-2.7
			c-0.3-0.7-0.7-1.4-1.2-2c-0.6-0.8-1.3-1.5-2.1-2c-0.8-0.6-1.7-1-2.7-1.3c-0.8-0.2-1.8-0.3-2.7-0.3c-3,0-5.6,1.1-6.6,1.5
			c-1.1,0.5-2.2,1.1-3.2,1.7c-0.9,0.6-1.8,1.3-2.6,2.1c-0.7,0.7-1.4,1.5-1.9,2.2c-0.5,0.7-0.9,1.4-1.1,2c-0.1,0.3-0.2,0.6-0.2,0.9
			c0,0.3,0,0.6,0.2,0.9C8.9,22.3,9.5,22.7,10,22.9z M26.5,15.8c1.8,0,3.3,1.5,3.3,3.3c0,1.8-1.5,3.3-3.3,3.3c-1.8,0-3.3-1.5-3.3-3.3
			C23.2,17.2,24.7,15.8,26.5,15.8z"/>
	</g>
	<g id="XMLID_25_">
		<path id="XMLID_226_" class="st0" d="M3.6,58.8c-0.9-0.5-1.7-1.2-2.2-2.1c-0.5-0.9-0.8-1.9-0.8-3.1s0.3-2.2,0.8-3.1
			c0.5-0.9,1.3-1.6,2.2-2.1c0.9-0.5,2-0.8,3.2-0.8c1,0,2,0.2,2.8,0.6c0.8,0.4,1.5,0.9,2.1,1.6l-2,1.9C8.9,50.8,8,50.4,7,50.4
			c-0.6,0-1.2,0.1-1.6,0.4c-0.5,0.3-0.9,0.7-1.1,1.1c-0.3,0.5-0.4,1.1-0.4,1.7c0,0.6,0.1,1.2,0.4,1.7c0.3,0.5,0.6,0.9,1.1,1.1
			c0.5,0.3,1,0.4,1.6,0.4c1.1,0,1.9-0.4,2.7-1.3l2,1.9c-0.6,0.7-1.2,1.2-2.1,1.6c-0.8,0.4-1.8,0.6-2.8,0.6
			C5.6,59.5,4.5,59.3,3.6,58.8z"/>
		<path id="XMLID_221_" class="st0" d="M23.6,47.9v11.4h-3.2v-4.4H16v4.4h-3.2V47.9H16v4.3h4.4v-4.3H23.6z"/>
		<path id="XMLID_209_" class="st0" d="M26.9,58.2c-0.9-0.9-1.4-2.2-1.4-3.9v-6.3h3.2v6.2c0,1.8,0.7,2.7,2.2,2.7
			c1.4,0,2.1-0.9,2.1-2.7v-6.2h3.2v6.3c0,1.7-0.5,3-1.4,3.9c-0.9,0.9-2.3,1.4-3.9,1.4C29.1,59.5,27.8,59.1,26.9,58.2z"/>
		<path id="XMLID_203_" class="st0" d="M6.1,70.6H4.3v3H1.1V62.3h5.2c1,0,1.9,0.2,2.7,0.5c0.8,0.3,1.3,0.8,1.8,1.5
			c0.4,0.6,0.6,1.4,0.6,2.2c0,0.8-0.2,1.5-0.6,2.2c-0.4,0.6-0.9,1.1-1.6,1.4l2.5,3.6H8.2L6.1,70.6z M7.6,65.2
			c-0.3-0.3-0.8-0.4-1.5-0.4H4.3v3.3h1.8c0.7,0,1.2-0.1,1.5-0.4C8,67.4,8.1,67,8.1,66.5C8.1,65.9,8,65.5,7.6,65.2z"/>
		<path id="XMLID_189_" class="st0" d="M17.8,70.6H16v3h-3.2V62.3H18c1,0,1.9,0.2,2.7,0.5c0.8,0.3,1.3,0.8,1.8,1.5
			c0.4,0.6,0.6,1.4,0.6,2.2c0,0.8-0.2,1.5-0.6,2.2c-0.4,0.6-0.9,1.1-1.6,1.4l2.5,3.6h-3.4L17.8,70.6z M19.3,65.2
			c-0.3-0.3-0.8-0.4-1.5-0.4H16v3.3h1.8c0.7,0,1.2-0.1,1.5-0.4c0.3-0.3,0.5-0.7,0.5-1.2C19.8,65.9,19.7,65.5,19.3,65.2z"/>
		<path id="XMLID_174_" class="st0" d="M32.1,71.4h-4.8l-0.9,2.2h-3.3l5-11.4h3.2l5,11.4H33L32.1,71.4z M31.2,69l-1.5-3.6L28.3,69
			H31.2z"/>
		<path id="XMLID_171_" class="st0" d="M38.3,73.5c-0.9-0.2-1.6-0.5-2.1-0.9l1.1-2.4c0.5,0.3,1.1,0.6,1.8,0.8c0.7,0.2,1.3,0.3,2,0.3
			c1.2,0,1.9-0.3,1.9-0.9c0-0.3-0.2-0.6-0.5-0.7c-0.4-0.2-0.9-0.3-1.7-0.5c-0.9-0.2-1.6-0.4-2.1-0.6c-0.6-0.2-1.1-0.5-1.5-1
			c-0.4-0.5-0.6-1.1-0.6-1.9c0-0.7,0.2-1.3,0.6-1.9c0.4-0.6,0.9-1,1.7-1.3c0.8-0.3,1.7-0.5,2.8-0.5c0.7,0,1.5,0.1,2.2,0.3
			c0.7,0.2,1.4,0.4,1.9,0.7l-1,2.4c-1.1-0.6-2.1-0.9-3.2-0.9c-0.6,0-1.1,0.1-1.4,0.3c-0.3,0.2-0.4,0.4-0.4,0.7
			c0,0.3,0.2,0.5,0.5,0.7c0.3,0.2,0.9,0.3,1.7,0.5c0.9,0.2,1.6,0.4,2.2,0.6c0.6,0.2,1.1,0.5,1.5,1c0.4,0.5,0.6,1.1,0.6,1.9
			c0,0.7-0.2,1.3-0.6,1.9c-0.4,0.6-0.9,1-1.7,1.3C43,73.7,42,73.9,41,73.9C40,73.9,39.1,73.7,38.3,73.5z"/>
		<path id="XMLID_169_" class="st0" d="M3.6,87.4c-0.9-0.5-1.7-1.2-2.2-2.1c-0.5-0.9-0.8-1.9-0.8-3.1c0-1.1,0.3-2.2,0.8-3.1
			c0.5-0.9,1.3-1.6,2.2-2.1c0.9-0.5,2-0.8,3.2-0.8c1,0,2,0.2,2.8,0.6c0.8,0.4,1.5,0.9,2.1,1.6l-2,1.9C8.9,79.5,8,79,7,79
			c-0.6,0-1.2,0.1-1.6,0.4c-0.5,0.3-0.9,0.7-1.1,1.1c-0.3,0.5-0.4,1.1-0.4,1.7c0,0.6,0.1,1.2,0.4,1.7c0.3,0.5,0.6,0.9,1.1,1.1
			c0.5,0.3,1,0.4,1.6,0.4c1.1,0,1.9-0.4,2.7-1.3l2,1.9c-0.6,0.7-1.2,1.2-2.1,1.6c-0.8,0.4-1.8,0.6-2.8,0.6
			C5.6,88.2,4.5,87.9,3.6,87.4z"/>
		<path id="XMLID_70_" class="st0" d="M15,87.4c-1-0.5-1.7-1.2-2.3-2.1c-0.5-0.9-0.8-1.9-0.8-3c0-1.1,0.3-2.1,0.8-3
			c0.5-0.9,1.3-1.6,2.3-2.1c1-0.5,2-0.8,3.2-0.8c1.2,0,2.3,0.3,3.2,0.8c1,0.5,1.7,1.2,2.3,2.1c0.5,0.9,0.8,1.9,0.8,3
			c0,1.1-0.3,2.1-0.8,3c-0.5,0.9-1.3,1.6-2.3,2.1c-1,0.5-2,0.8-3.2,0.8C17.1,88.2,16,87.9,15,87.4z M19.8,85.1
			c0.5-0.3,0.8-0.7,1.1-1.1c0.3-0.5,0.4-1.1,0.4-1.7c0-0.6-0.1-1.2-0.4-1.7c-0.3-0.5-0.6-0.9-1.1-1.1c-0.5-0.3-1-0.4-1.6-0.4
			c-0.6,0-1.1,0.1-1.6,0.4c-0.5,0.3-0.8,0.7-1.1,1.1c-0.3,0.5-0.4,1.1-0.4,1.7c0,0.6,0.1,1.2,0.4,1.7c0.3,0.5,0.6,0.9,1.1,1.1
			c0.5,0.3,1,0.4,1.6,0.4C18.9,85.5,19.4,85.4,19.8,85.1z"/>
	</g>
</g>
</svg>
